<?xml version="1.0" encoding="utf-8"?>
<!-- Generator: Adobe Illustrator 22.0.1, SVG Export Plug-In . SVG Version: 6.00 Build 0)  -->
<svg version="1.1" id="Capa_1" xmlns="http://www.w3.org/2000/svg" xmlns:xlink="http://www.w3.org/1999/xlink" x="0px" y="0px"
	 viewBox="0 0 1133.9 1133.9" style="enable-background:new 0 0 1133.9 1133.9;" xml:space="preserve">
<style type="text/css">
	.st0{display:none;fill:#486961;}
	.st1{display:none;}
	.st2{display:inline;stroke:#000000;stroke-width:1.6964;stroke-miterlimit:10;}
	.st3{fill:#EBDDCC;}
	.st4{fill-rule:evenodd;clip-rule:evenodd;fill:#FFFFFF;}
	.st5{fill:#FFFFFF;}
</style>
<path class="st0" d="M1339.9,943.2c-0.4-2.9-1.9-3.6-4.4-1.9c-1.3,0.8-1.8,1.4-1.5,1.6c0.3,0.2,1.2,0.3,2.8,0.3H1339.9z"/>
<g class="st1">
	<path class="st2" d="M939.4,732.1c-0.1,0-0.2,0-0.4,0c-0.2,0-0.3,0-0.4,0c-0.2,0-0.4,0.1-0.4,0.2c0,0.1,0,0.3,0,0.6l0.1,0.3l0.5,0
		c0.4,0,0.6,0.1,0.6,0.1c0,0,0,0.1-0.1,0.1c0,0.1-0.4,0.1-1,0.1c0,0.1,0,0.3,0,0.6c0,0.9,0,1.3-0.1,1.3c-0.1,0-0.1,0-0.1,0
		c0,0-0.1-0.1-0.1-0.1c0-0.1,0-0.2-0.1-0.3c0-0.1,0-0.3,0-0.5c0-0.2,0-0.4-0.1-0.8c0-0.4,0-0.7-0.1-0.8c0-0.5,0-0.8,0-0.9
		c0-0.1,0.2-0.2,0.4-0.2c0,0,0.1,0,0.1,0c0.1,0,0.2,0,0.3,0c0.1,0,0.2,0,0.3,0c0.1,0,0.2,0,0.3,0c0.1,0,0.2,0,0.3,0
		c0.1,0,0.2,0,0.2,0c0.1,0,0.1,0,0.1,0.1c0,0.1,0,0.2,0,0.2C939.8,732.1,939.6,732.1,939.4,732.1z"/>
	<path class="st2" d="M949.6,733.4c0,1.1-0.1,1.6-0.3,1.5c0,0-0.1,0-0.1-0.1c0-0.1,0-0.3,0-0.5c0.1-0.2,0.1-0.4,0.1-0.5H948
		c0,0,0,0.1,0,0.2c0,0.1,0,0.2,0,0.3c0,0.1,0,0.2,0,0.3c0,0.1,0,0.2,0,0.3c0,0.1-0.1,0.1-0.1,0.1c-0.1,0-0.2-0.2-0.2-0.6
		c0-0.2,0-0.6-0.1-1c0-0.4,0-0.7,0-0.8c0-0.1,0.1-0.3,0.2-0.5c0.2-0.4,0.4-0.7,0.6-0.7c0.1,0,0.2,0,0.4,0c0.2,0,0.3,0.1,0.3,0.2
		c0.2,0.2,0.3,0.4,0.3,0.7C949.5,732.5,949.6,732.8,949.6,733.4z M948.5,731.8c-0.2,0.1-0.3,0.3-0.4,0.6c-0.1,0.3-0.1,0.7-0.1,1
		c0.6,0,1,0,1.2-0.1c0-0.3,0-0.5,0-0.8c0-0.3-0.1-0.5-0.2-0.6C948.8,731.7,948.7,731.7,948.5,731.8z"/>
	<path class="st2" d="M959.6,734.4c0,0.1,0,0.1-0.1,0.1c0,0-0.1,0-0.3,0.1c-0.4,0.1-0.9,0-1.3-0.1c-0.4-0.1-0.7-0.3-0.9-0.5
		c-0.2-0.3-0.2-0.6-0.1-1.1c0.1-0.2,0.2-0.4,0.5-0.7c0.3-0.3,0.6-0.5,0.9-0.6c0.5-0.3,0.9-0.3,1.2-0.1c0.1,0.1,0.2,0.2,0.2,0.3
		c0,0.1,0,0.2-0.1,0.2c-0.1,0-0.1,0-0.3-0.1c-0.1-0.1-0.2-0.1-0.4-0.1c-0.1,0-0.3,0.1-0.6,0.2c-0.6,0.3-1,0.7-1.1,1.1
		c-0.1,0.4,0,0.7,0.4,1c0.1,0.1,0.3,0.2,0.4,0.2c0.1,0,0.4,0,0.7,0C959.3,734.3,959.6,734.3,959.6,734.4
		C959.6,734.4,959.6,734.4,959.6,734.4z"/>
	<path class="st2" d="M969.1,731.9c0,0.1,0,0.1-0.1,0.1c-0.1,0-0.3,0-0.7,0.1c-0.5,0-0.8,0.1-0.8,0.1c0,0-0.1,0.3-0.1,0.8l0.5,0
		c0.3,0,0.5,0,0.5,0.1c0,0,0,0,0,0.1c0,0.1,0,0.1-0.1,0.1c-0.1,0-0.2,0-0.4,0.1h-0.5v1.4c0.5,0,0.8-0.1,0.9-0.2
		c0.1-0.1,0.2-0.1,0.3-0.1c0.1,0,0.1,0.1,0.1,0.1c0,0.2-0.2,0.3-0.6,0.4c-0.4,0.1-0.7,0.1-0.9,0l-0.2-0.1v-3c0.4,0,0.8-0.1,1.3-0.1
		C968.8,731.8,969.1,731.8,969.1,731.9C969.1,731.9,969.1,731.9,969.1,731.9z"/>
	<path class="st2" d="M978.5,733c0.1,0,0.2,0.1,0.4,0.3c0.2,0.2,0.3,0.4,0.4,0.7c0,0.2,0,0.5-0.1,0.7c-0.1,0.2-0.3,0.3-0.6,0.4
		c-0.3,0.1-0.5,0.1-0.8,0c-0.3-0.1-0.6-0.2-0.9-0.4c-0.3-0.2-0.4-0.3-0.4-0.4c0-0.1,0-0.1,0.1-0.1c0,0,0.1,0,0.2,0
		c0.1,0,0.1,0.1,0.2,0.1c0.1,0.1,0.2,0.1,0.2,0.1c0,0,0-0.2,0-0.5c0-0.3-0.1-0.6-0.1-1c-0.1-0.4-0.1-0.6-0.2-0.6
		c-0.1-0.1-0.1-0.1-0.1-0.1c0,0,0-0.1,0.1-0.2c0.1-0.2,0.4-0.3,0.8-0.4c0.2,0,0.4,0,0.6,0.1c0.2,0.1,0.3,0.3,0.4,0.5
		c0.1,0.2,0.1,0.4,0,0.5C978.5,732.8,978.5,732.9,978.5,733C978.5,733,978.5,733,978.5,733z M977.7,732c-0.2,0-0.3,0-0.4,0.1
		c0,0.1,0,0.2,0,0.5c0,0.2,0.1,0.3,0.2,0.4c0.1,0,0.2,0,0.4-0.1c0.3-0.2,0.4-0.4,0.3-0.6c-0.1-0.1-0.1-0.2-0.2-0.2
		C978,732,977.9,732,977.7,732z M977.9,733.3h-0.5c0,0.6,0,1,0,1.3c0.2,0.1,0.4,0.1,0.7,0.1c0.3,0,0.5-0.1,0.6-0.2
		c0.1-0.1,0.1-0.2,0.1-0.4c0-0.1,0-0.2,0-0.3c0-0.1-0.1-0.1-0.2-0.2c-0.1-0.1-0.2-0.1-0.2-0.2S978.2,733.3,977.9,733.3z"/>
	<path class="st2" d="M988.1,732c0.1,0,0.3,0.1,0.4,0.3c0.2,0.2,0.3,0.4,0.3,0.6c0,0.2,0,0.4,0,0.7c0,0.3-0.1,0.5-0.1,0.5
		c0,0-0.1,0.1-0.1,0.2c-0.1,0.2-0.3,0.5-0.6,0.7c-0.4,0.2-0.7,0.2-1,0.1c-0.4-0.2-0.7-0.7-0.7-1.4c0-0.7,0.2-1.2,0.6-1.6
		c0.1-0.1,0.3-0.2,0.5-0.2c0.2,0,0.3,0,0.4,0.1C987.9,732,988,732,988.1,732z M988,732.4c-0.1,0-0.2,0-0.3-0.1
		c-0.2-0.2-0.4-0.2-0.6,0.1c-0.3,0.3-0.4,0.7-0.4,1.2c0,0.1,0,0.2,0.1,0.3c0.1,0.3,0.1,0.5,0.2,0.5c0,0.1,0.1,0.2,0.3,0.2
		c0.2,0.1,0.5,0.1,0.7-0.1c0.2-0.1,0.4-0.3,0.5-0.6c0.1-0.4,0.2-0.7,0.1-1.1c0-0.1-0.1-0.3-0.2-0.4
		C988.2,732.5,988.1,732.4,988,732.4z"/>
	<path class="st2" d="M997.9,732c0.1,0,0.3,0.1,0.4,0.3c0.2,0.2,0.3,0.4,0.3,0.6c0,0.2,0,0.4,0,0.7c0,0.3-0.1,0.5-0.1,0.5
		c0,0-0.1,0.1-0.1,0.2c-0.1,0.2-0.3,0.5-0.6,0.7c-0.4,0.2-0.7,0.2-1,0.1c-0.4-0.2-0.7-0.7-0.7-1.4c0-0.7,0.2-1.2,0.6-1.6
		c0.1-0.1,0.3-0.2,0.5-0.2c0.2,0,0.3,0,0.4,0.1C997.7,732,997.8,732,997.9,732z M997.7,732.4c-0.1,0-0.2,0-0.3-0.1
		c-0.2-0.2-0.4-0.2-0.6,0.1c-0.3,0.3-0.4,0.7-0.4,1.2c0,0.1,0,0.2,0.1,0.3c0.1,0.3,0.1,0.5,0.2,0.5c0,0.1,0.1,0.2,0.3,0.2
		c0.2,0.1,0.5,0.1,0.7-0.1c0.2-0.1,0.4-0.3,0.5-0.6c0.1-0.4,0.2-0.7,0.1-1.1c0-0.1-0.1-0.3-0.2-0.4
		C997.9,732.5,997.8,732.4,997.7,732.4z"/>
	<path class="st2" d="M1006.3,731.6c0.1,0,0.1,0,0.1,0.2c0,0.1,0,0.4,0,0.8c0,0.6,0,1,0.1,1c0,0,0.2-0.2,0.5-0.5
		c0.3-0.3,0.5-0.6,0.6-0.8c0.3-0.4,0.4-0.5,0.6-0.4c0,0,0,0,0,0.1c0,0,0,0.1-0.1,0.2c0,0.1-0.1,0.2-0.2,0.3
		c-0.1,0.1-0.2,0.2-0.2,0.3c-0.1,0.1-0.1,0.2-0.2,0.3c-0.1,0.1-0.1,0.2-0.2,0.2c0.2,1.1,0.4,1.7,0.4,1.9c0.1,0.2,0.1,0.3,0.1,0.4
		c0,0-0.1,0.1-0.2,0.1c-0.1,0-0.2-0.1-0.2-0.2c0-0.1-0.1-0.4-0.2-0.9c-0.1-0.4-0.1-0.6-0.2-0.7c0-0.1-0.1-0.1-0.1-0.1
		c-0.1,0-0.2,0.1-0.3,0.3c-0.1,0.1-0.2,0.3-0.2,0.4c0,0.1,0,0.3,0,0.7c0,0.5,0,0.7-0.1,0.8c-0.1,0-0.2,0-0.2-0.2
		c0-0.2-0.1-0.8-0.1-1.9c0-1.3,0-2,0.1-2C1006.1,731.6,1006.2,731.6,1006.3,731.6z"/>
	<path class="st2" d="M1016.6,735.9c0-0.1,0.1-0.1,0.3-0.1c0.1,0,0.2,0.1,0.3,0.1c0.1,0.2,0.1,0.4-0.1,0.4c-0.1,0.1-0.3,0.1-0.4-0.1
		C1016.5,736.2,1016.5,736,1016.6,735.9z"/>
	<path class="st2" d="M1027.9,734.4c0,0.1,0,0.1-0.1,0.1c0,0-0.1,0-0.3,0.1c-0.4,0.1-0.9,0-1.3-0.1c-0.4-0.1-0.7-0.3-0.9-0.5
		c-0.2-0.3-0.2-0.6-0.1-1.1c0.1-0.2,0.2-0.4,0.5-0.7c0.3-0.3,0.6-0.5,0.9-0.6c0.5-0.3,0.9-0.3,1.2-0.1c0.1,0.1,0.2,0.2,0.2,0.3
		c0,0.1,0,0.2-0.1,0.2c-0.1,0-0.1,0-0.3-0.1c-0.1-0.1-0.2-0.1-0.4-0.1c-0.1,0-0.3,0.1-0.6,0.2c-0.6,0.3-1,0.7-1.1,1.1
		c-0.1,0.4,0,0.7,0.4,1c0.1,0.1,0.3,0.2,0.4,0.2c0.1,0,0.4,0,0.7,0C1027.6,734.3,1027.9,734.3,1027.9,734.4
		C1027.9,734.4,1027.9,734.4,1027.9,734.4z"/>
	<path class="st2" d="M1036.9,732c0.1,0,0.3,0.1,0.4,0.3c0.2,0.2,0.3,0.4,0.3,0.6c0,0.2,0,0.4,0,0.7c0,0.3-0.1,0.5-0.1,0.5
		c0,0-0.1,0.1-0.1,0.2c-0.1,0.2-0.3,0.5-0.6,0.7c-0.4,0.2-0.7,0.2-1,0.1c-0.4-0.2-0.7-0.7-0.7-1.4c0-0.7,0.2-1.2,0.6-1.6
		c0.1-0.1,0.3-0.2,0.5-0.2c0.2,0,0.3,0,0.4,0.1C1036.7,732,1036.8,732,1036.9,732z M1036.7,732.4c-0.1,0-0.2,0-0.2-0.1
		c-0.2-0.2-0.4-0.2-0.6,0.1c-0.3,0.3-0.4,0.7-0.4,1.2c0,0.1,0,0.2,0.1,0.3c0.1,0.3,0.1,0.5,0.2,0.5c0,0.1,0.1,0.2,0.3,0.2
		c0.2,0.1,0.5,0.1,0.7-0.1c0.2-0.1,0.4-0.3,0.5-0.6c0.1-0.4,0.2-0.7,0.1-1.1c0-0.1-0.1-0.3-0.2-0.4
		C1037,732.5,1036.8,732.4,1036.7,732.4z"/>
	<path class="st2" d="M1047.4,734.7c-0.1,0-0.2-0.1-0.2-0.2c0-0.2-0.1-0.5-0.1-1l-0.1-1.1c-0.3,0.3-0.5,0.5-0.7,0.8
		c-0.2,0.2-0.3,0.4-0.4,0.4c-0.1,0-0.2-0.1-0.4-0.4c-0.1-0.2-0.2-0.3-0.3-0.4c-0.1-0.1-0.1-0.1-0.1,0c0,0.1,0,0.3,0,0.8
		c0,0.5,0,0.8-0.1,0.8c0,0.1-0.1,0.1-0.1,0.2c-0.1,0-0.1,0-0.1-0.1c0-0.1,0-0.3,0-0.7c0-0.4,0-0.8,0-1c0-0.3,0-0.5,0-0.6
		c0-0.1,0.1-0.2,0.1-0.3c0,0,0.1,0,0.2,0c0.1,0,0.2,0.2,0.4,0.5c0.2,0.3,0.3,0.5,0.4,0.6c0,0.1,0.1,0,0.3-0.2
		c0.1-0.1,0.1-0.1,0.1-0.1c0-0.1,0.2-0.3,0.7-0.8c0.1-0.1,0.2-0.2,0.3-0.1c0.1,0,0.1,0.1,0.1,0.2c0,0.1,0,0.3,0,0.6
		c0,0.3,0,0.7,0.1,1.3c0,0.4,0,0.6,0,0.7C1047.5,734.6,1047.4,734.7,1047.4,734.7z"/>
	<path class="st2" d="M1056.6,732.1c-0.2,0.3-0.3,0.5-0.4,0.8c-0.1,0.2-0.2,0.4-0.3,0.6c-0.1,0.1-0.1,0.3-0.3,0.7
		c-0.1,0.3-0.2,0.6-0.3,0.7c-0.2,0.5-0.3,0.7-0.4,0.7c0,0-0.1,0-0.1-0.1c-0.1-0.2,0.2-1.1,1.1-2.9c0.3-0.7,0.6-1.1,0.7-1.3
		c0.1-0.1,0.1-0.1,0.2-0.1c0.1,0,0.1,0,0.1,0.1c0,0.1,0,0.1,0,0.2C1056.9,731.5,1056.8,731.7,1056.6,732.1z"/>
	<path class="st2" d="M1066.3,733.6c0,0-0.1,0-0.1,0.1c0,0.1-0.2,0.1-0.6,0.1c-0.2,0-0.4,0-0.4,0.1c0,0-0.1,0.1-0.1,0.1
		c0,0.2,0.1,0.5,0.1,0.7c0,0.3,0,0.4,0,0.4c-0.1,0-0.1,0-0.2,0c-0.1-0.1-0.1-0.2-0.1-0.3c0-0.2-0.1-0.8-0.3-1.9
		c-0.1-0.4-0.1-0.6-0.2-0.6c-0.1,0-0.1-0.1-0.1-0.2c0-0.1,0.1-0.2,0.1-0.3c0.1-0.1,0.2-0.2,0.5-0.3c0.2-0.1,0.5-0.1,0.8-0.1
		c0.3,0,0.6,0,0.7,0.1c0.2,0.1,0.4,0.3,0.5,0.6c0.1,0.3,0.1,0.5,0,0.8c-0.1,0.1-0.1,0.2-0.3,0.4
		C1066.5,733.5,1066.4,733.6,1066.3,733.6z M1064.9,732.3c0,0.3,0.1,0.7,0.2,1.2c0.1,0,0.2,0,0.4,0c0.2,0,0.4,0,0.5-0.1
		c0.1,0,0.2-0.1,0.2-0.1c0.1-0.1,0.2-0.2,0.2-0.2c0,0,0.1-0.1,0.1-0.3c0.1-0.2,0.1-0.3,0-0.4c-0.1-0.2-0.3-0.4-0.4-0.5
		c-0.2-0.1-0.5-0.1-0.9,0.1c-0.2,0.1-0.3,0.2-0.4,0.2C1064.9,732.2,1064.9,732.2,1064.9,732.3z"/>
	<path class="st2" d="M1074.4,735.1c0-0.4,0-0.9,0.1-1.6c0.1-0.7,0.1-1.1,0.1-1.4c0-0.1,0-0.2,0.1-0.3c0.1-0.1,0.2-0.1,0.3,0.2
		c0,0.2,0,0.6-0.1,1c-0.1,0.3-0.1,0.7-0.1,1.1c0,0.4,0,0.6,0,0.6c0,0,0.2,0,0.6-0.1c0.7-0.1,1.1-0.1,1.1,0.1c0,0.1-0.1,0.2-0.2,0.2
		c0,0-0.2,0-0.5,0.1c-0.3,0.1-0.5,0.1-0.7,0.1c-0.2,0-0.3,0-0.5,0L1074.4,735.1z"/>
	<path class="st2" d="M1084.3,732c0.1,0,0.1,0,0.1,0.1c0,0.1,0,0.2-0.1,0.2c-0.1,0.1-0.1,0.3-0.1,0.7c0,0.4,0,0.7,0.1,0.9
		c0.1,0.2,0.2,0.4,0.3,0.6c0.2,0.2,0.3,0.3,0.5,0.3c0.5,0,0.7-0.6,0.7-1.9c0-0.6,0-0.9,0.1-0.9c0,0,0.1,0.1,0.2,0.2
		c0.1,0.1,0.1,0.5,0.1,1c0,0.5-0.1,0.9-0.2,1.2c0,0.1-0.1,0.2-0.1,0.2c0,0.1,0,0.2-0.1,0.2c0,0,0,0.1-0.1,0.1c0,0-0.1,0.1-0.1,0.1
		c0,0-0.1,0.1-0.2,0.1c-0.2,0.1-0.3,0.1-0.4,0.1c-0.1,0-0.3-0.1-0.5-0.2c-0.1-0.1-0.2-0.2-0.4-0.4c-0.1-0.2-0.2-0.4-0.3-0.7
		c-0.1-0.3-0.1-0.7-0.1-1.2C1084,732.4,1084.1,732.1,1084.3,732z"/>
	<path class="st2" d="M1096.1,734.7c-0.1,0-0.2-0.1-0.2-0.2c0-0.2-0.1-0.5-0.1-1l-0.1-1.1c-0.3,0.3-0.5,0.5-0.7,0.8
		c-0.2,0.2-0.3,0.4-0.4,0.4c-0.1,0-0.2-0.1-0.4-0.4c-0.1-0.2-0.2-0.3-0.3-0.4c-0.1-0.1-0.1-0.1-0.1,0c0,0.1,0,0.3,0,0.8
		c0,0.5,0,0.8-0.1,0.8c0,0.1-0.1,0.1-0.1,0.2c-0.1,0-0.1,0-0.1-0.1c0-0.1,0-0.3,0-0.7c0-0.4,0-0.8,0-1c0-0.3,0-0.5,0-0.6
		c0-0.1,0.1-0.2,0.1-0.3c0,0,0.1,0,0.2,0c0.1,0,0.2,0.2,0.4,0.5c0.2,0.3,0.3,0.5,0.4,0.6c0,0.1,0.1,0,0.3-0.2
		c0.1-0.1,0.1-0.1,0.1-0.1c0-0.1,0.2-0.3,0.7-0.8c0.1-0.1,0.2-0.2,0.3-0.1c0.1,0,0.1,0.1,0.1,0.2c0,0.1,0,0.3,0,0.6
		c0,0.3,0,0.7,0.1,1.3c0,0.4,0,0.6,0,0.7C1096.2,734.6,1096.2,734.7,1096.1,734.7z"/>
	<path class="st2" d="M1105.7,731.9c0,0.1,0,0.1-0.1,0.1c-0.1,0-0.3,0-0.7,0.1c-0.5,0-0.8,0.1-0.8,0.1c0,0-0.1,0.3-0.1,0.8l0.5,0
		c0.3,0,0.5,0,0.5,0.1c0,0,0,0,0,0.1c0,0.1,0,0.1-0.1,0.1c-0.1,0-0.2,0-0.4,0.1h-0.5v1.4c0.5,0,0.8-0.1,0.9-0.2
		c0.1-0.1,0.2-0.1,0.3-0.1c0.1,0,0.1,0.1,0.1,0.1c0,0.2-0.2,0.3-0.6,0.4c-0.4,0.1-0.7,0.1-0.9,0l-0.2-0.1v-3c0.4,0,0.8-0.1,1.3-0.1
		C1105.4,731.8,1105.6,731.8,1105.7,731.9C1105.7,731.9,1105.7,731.9,1105.7,731.9z"/>
	<path class="st2" d="M1114.4,731.8c0.4,0,0.7,0,0.9,0c0.2,0,0.4,0,0.5,0c0.1,0,0.2,0.1,0.2,0.1c0,0,0,0.1,0,0.1
		c0,0-0.1,0.1-0.3,0.1c-0.2,0-0.4,0-0.7,0c-0.3,0-0.4,0-0.5,0c0,0.1,0,0.3,0,0.6c0,0.3,0,0.6,0,0.9s0,0.7,0,0.9c0,0.3,0,0.5,0,0.7
		c0,0.2,0,0.3-0.1,0.2c-0.1,0-0.1,0-0.2,0c0-0.1-0.1-1.2-0.2-3.4l-0.7,0c-0.5,0-0.7,0-0.7-0.1c0,0,0-0.1,0.1-0.2
		c0.1-0.1,0.2-0.1,0.3-0.1C1113.3,731.8,1113.7,731.8,1114.4,731.8z"/>
	<path class="st2" d="M1124,731.9c0.1,0,0.2,0,0.2,0c0,0,0.1,0.2,0.1,0.5c0,0.4,0.1,0.9,0,1.5c0,0.6,0,1,0,1.1c0,0.1,0,0.1-0.1,0.1
		c0,0-0.1,0-0.1,0c0,0-0.1-0.1-0.1-0.1c0-0.1-0.1-0.6-0.1-1.6C1123.9,732.4,1124,731.9,1124,731.9z"/>
	<path class="st2" d="M1133.1,731.4c0.3,0,0.6,0.1,1,0.2c0.4,0.1,0.6,0.2,0.7,0.4c0,0,0.1,0,0.1,0.1c0.1,0.1,0.2,0.1,0.2,0.2
		c0.1,0.1,0.1,0.1,0.1,0.1c0,0,0,0.1,0.1,0.2c0.1,0.1,0.1,0.3,0.1,0.8c0,0.3,0,0.5,0,0.6c0,0.1-0.1,0.2-0.2,0.4
		c-0.1,0.2-0.2,0.3-0.3,0.3c-0.1,0-0.1,0-0.1,0.1c0,0.1-0.2,0.2-0.7,0.4c-0.1,0.1-0.4,0.1-0.7,0.1c-0.2,0-0.3,0-0.4,0
		c-0.1,0-0.1-0.1-0.2-0.2c-0.1-0.3-0.3-0.8-0.4-1.5c-0.1-0.7-0.2-1.2-0.3-1.4c0-0.1,0-0.2,0-0.2c0,0,0.1-0.1,0.2-0.2
		C1132.6,731.5,1132.8,731.4,1133.1,731.4z M1133.2,734.8c0.2,0,0.5,0,0.8-0.1c0.3-0.1,0.5-0.1,0.5-0.2c0,0,0-0.1,0.1-0.1
		c0.3-0.1,0.5-0.4,0.5-0.8c0.1-0.4,0-0.8-0.2-1.1c-0.1-0.1-0.2-0.2-0.3-0.3c-0.1,0-0.1,0-0.1-0.1c0,0-0.2-0.1-0.6-0.3
		c-0.3-0.1-0.5-0.1-0.8-0.2c-0.3,0-0.4,0-0.4,0c0,0,0,0.2,0,0.5c0,0.3,0.1,0.5,0.1,0.5c0,0,0.1,0.2,0.1,0.6c0,0.2,0.1,0.5,0.1,0.9
		C1133.2,734.5,1133.2,734.7,1133.2,734.8z"/>
	<path class="st2" d="M1144.7,731.9c0,0.1,0,0.1-0.1,0.1c-0.1,0-0.3,0-0.7,0.1c-0.5,0-0.8,0.1-0.8,0.1c0,0-0.1,0.3-0.1,0.8l0.5,0
		c0.3,0,0.5,0,0.5,0.1c0,0,0,0,0,0.1c0,0.1,0,0.1-0.1,0.1c-0.1,0-0.2,0-0.4,0.1h-0.5v1.4c0.5,0,0.8-0.1,0.9-0.2
		c0.1-0.1,0.2-0.1,0.3-0.1c0.1,0,0.1,0.1,0.1,0.1c0,0.2-0.2,0.3-0.6,0.4c-0.4,0.1-0.7,0.1-0.9,0l-0.2-0.1v-3c0.4,0,0.8-0.1,1.3-0.1
		C1144.4,731.8,1144.6,731.8,1144.7,731.9C1144.7,731.9,1144.7,731.9,1144.7,731.9z"/>
	<path class="st2" d="M1154.7,734.4c0,0.1,0,0.1-0.1,0.1c0,0-0.1,0-0.3,0.1c-0.4,0.1-0.9,0-1.3-0.1c-0.4-0.1-0.7-0.3-0.9-0.5
		c-0.2-0.3-0.2-0.6-0.1-1.1c0.1-0.2,0.2-0.4,0.5-0.7c0.3-0.3,0.6-0.5,0.9-0.6c0.5-0.3,0.9-0.3,1.2-0.1c0.1,0.1,0.2,0.2,0.2,0.3
		c0,0.1,0,0.2-0.1,0.2c-0.1,0-0.2,0-0.3-0.1c-0.1-0.1-0.2-0.1-0.4-0.1c-0.1,0-0.3,0.1-0.6,0.2c-0.6,0.3-1,0.7-1.1,1.1
		c-0.1,0.4,0,0.7,0.4,1c0.1,0.1,0.3,0.2,0.4,0.2c0.1,0,0.4,0,0.7,0C1154.4,734.3,1154.7,734.3,1154.7,734.4
		C1154.7,734.4,1154.7,734.4,1154.7,734.4z"/>
	<path class="st2" d="M1163.7,732c0.1,0,0.3,0.1,0.4,0.3c0.2,0.2,0.3,0.4,0.3,0.6c0,0.2,0,0.4,0,0.7c0,0.3-0.1,0.5-0.1,0.5
		c0,0-0.1,0.1-0.1,0.2c-0.1,0.2-0.3,0.5-0.6,0.7c-0.4,0.2-0.7,0.2-1,0.1c-0.4-0.2-0.7-0.7-0.7-1.4c0-0.7,0.2-1.2,0.6-1.6
		c0.1-0.1,0.3-0.2,0.5-0.2c0.2,0,0.3,0,0.4,0.1C1163.5,732,1163.6,732,1163.7,732z M1163.5,732.4c-0.1,0-0.2,0-0.2-0.1
		c-0.2-0.2-0.4-0.2-0.6,0.1c-0.3,0.3-0.4,0.7-0.4,1.2c0,0.1,0,0.2,0.1,0.3c0.1,0.3,0.1,0.5,0.2,0.5c0,0.1,0.1,0.2,0.3,0.2
		c0.2,0.1,0.5,0.1,0.7-0.1c0.2-0.1,0.4-0.3,0.5-0.6c0.1-0.4,0.2-0.7,0.1-1.1c0-0.1-0.1-0.3-0.2-0.4
		C1163.8,732.5,1163.6,732.4,1163.5,732.4z"/>
</g>
<g>
	
		<ellipse transform="matrix(0.7071 -0.7071 0.7071 0.7071 -234.8297 566.9291)" class="st3" cx="566.9" cy="566.9" rx="566.9" ry="566.9"/>
	<g>
		<path class="st4" d="M117.9,550.3c0,8-6.7,14.5-14.9,14.4c-8,0-14.3-6.7-14.2-15c0.1-7.9,6.6-14.3,14.6-14.2
			C111.5,535.7,118,542.2,117.9,550.3z"/>
		<path class="st4" d="M106.3,455.7c-7.9,0-14.4,6.3-14.4,14.2c-0.1,7.8,5.5,14.2,12.9,14.9C102.6,475.6,104.1,464.6,106.3,455.7z"
			/>
		<path class="st4" d="M1018.2,505.8c-0.2,0.7-0.3,1.4-0.5,2L1018.2,505.8C1018.2,505.8,1018.2,505.8,1018.2,505.8z"/>
		<g id="XMLID_1_">
			<g>
				<path class="st5" d="M1097.2,542.1c0,17.7,0,35.5,0,53.2c-0.3,1.4-0.7,2.8-0.7,4.2c-0.2,3.8-0.1,7.6-0.4,11.3
					c-1.5,16.9-3.6,33.8-6.5,50.6c-8.9,50.1-24.5,98.1-47.6,143.5c-54.3,106.7-135.3,186.8-242.8,239.5
					c-63.6,31.2-131,48.3-201.7,52c-1.3,0.1-2.5,0.5-3.8,0.7c-16.3,0-32.6,0-48.9,0c-1.6-0.2-3.1-0.5-4.7-0.7
					c-13-1.2-26.1-2-39.1-3.6c-33.9-4-66.9-11.7-99.3-22.5c-81.2-27.1-151.7-71.3-211.6-132.4c-50.3-51.3-88.6-110.5-114.7-177.5
					c-20.5-52.4-32.3-106.7-35.3-162.9c-0.2-3.4-1-6.8-1.5-10.2c0-12.8,0-25.6,0-38.4c0.3-1.4,0.8-2.8,1-4.2
					c1.1-12.7,2-25.5,3.3-38.2c3-28.1,8.4-55.8,16.3-82.9C98,291.4,176.2,188.8,293.3,116c53.9-33.5,112.4-55.6,174.6-67.7
					c25.6-4.9,51.4-7.9,77.5-9c1.3-0.1,2.5-0.5,3.7-0.7c12.8,0,25.6,0,38.4,0c0.8,0.2,1.6,0.6,2.5,0.7c5.1,0.3,10.1,0.6,15.2,0.9
					c26.6,1.7,52.9,5.4,78.8,11.4c113.3,25.9,208.3,82.7,284.6,170.3c58.8,67.5,97.6,145.3,116.9,232.8c6,27.1,10.2,54.5,10.9,82.4
					C1096.5,538.7,1096.9,540.4,1097.2,542.1z M1062.6,654c6.1-35.7,8.7-71.6,6.9-107.7c-1.9-37.5-11.4-97.9-16.9-106.4
					c-6.1,2.3-12.2,4.6-18.3,6.8c-1.8,0.6-2.3,1.8-2.7,3.5c-1.9,7.8-4,15.5-5.9,23.2c-0.7,2.8-1.2,5.5-1.8,8.4
					c-1.8,4.2-2.4,8.7-3.1,13.4l-1,4.2l-1.6,6.5c-0.2,0.7-0.3,1.3-0.5,2c-1.5,6.8-3,13.1-4.3,19.4c-1.4,6.4-2.8,12.8-4.1,19.2
					c-2.2,11.3-5.3,22.3-5.7,33.9c0,1.4-0.5,2.9-1,4.2c-1.9,5.2-6.3,6.5-10.8,3.2c-1.8-1.4-3.6-3-4.9-4.9
					c-7.3-9.9-16-18.4-24.9-26.8c-15.3-14.6-29.3-30.3-42.2-47.1c-1.9-2.5-3.9-4.9-5.8-7.5c-3.3-4.5-6.6-9-10.3-14.1
					c-1.3,2.3-2.1,3.7-2.9,5.3c-4.4,8.7-8.9,17.3-13.3,26c-1.5,2.9-3.3,5.8-4.7,8.7c-5.4,11.3-10.6,22.7-15.9,33.9
					c-3.1,6.4-6.2,12.8-9.6,19.1c-5.2,9.5-10.9,18.8-16.1,28.3c-3.1,5.5-8.7,5.8-12.1,0.5c-1.4-2.2-2.4-4.7-3.3-7.1
					c-3.5-9.6-7.8-18.8-13.1-27.5c-5.4-9.1-10.9-18.2-16.3-27.3c-9.4-15.9-18-32.2-25.5-49.1c-0.7-1.5-1.5-2.9-2.7-5.1
					c-1.4,3.2-2.4,5.4-3.4,7.7c-7,15.5-13.8,31.1-21.2,46.3c-3.9,8.1-9.1,15.5-13.8,23.2c-4.4,7.2-9,14.3-13.3,21.5
					c-3,5.1-5.5,10.5-8.3,15.8c-1.3,2.4-2.6,4.9-4.2,7.1c-3.2,4.2-7.9,4-10.8-0.5c-1.3-2-2.2-4.4-3.1-6.7
					c-2.2-5.4-4.1-10.8-6.5-16.1c-3.1-7-6.5-14-9.8-20.9c-12.2-25.6-24.4-51.2-36.6-76.7c-1-2.2-2.3-4.3-3.6-6.7
					c-0.8,1.3-1.3,2-1.7,2.8c-5.5,11.2-11,22.4-17.2,33.2c-5.9,10.3-10.6,21.3-15.9,32c-6.4,13-12.9,26-20.6,38.4
					c-3.8,6.1-8.4,11.9-10.6,18.9c-0.8,2.4-2.7,4.1-5.5,4.4c-3,0.3-5.1-1.3-6.3-3.7c-1.3-2.5-2.3-5.1-3.1-7.7
					c-3.9-12.7-9.1-24.8-15.5-36.5c-4.3-7.9-8.8-15.7-12.7-23.8c-7.8-16.2-16-32.3-21.9-49.4c-0.6-1.7-1-3.6-2.7-4.9
					c-7.4,12.1-14.9,23.9-22.1,35.8c-13.6,22.5-27.1,45.1-40.5,67.7c-2.5,4.3-4.2,9.2-6.3,13.8c-0.7,1.4-1.5,2.8-2.5,4
					c-4.9,5.8-10.9,4.7-13.9-2.3c-2.7-6.3-5.4-12.5-8.5-18.6c-5.8-11.4-12.1-22.5-17.9-33.9c-7.3-14.4-14.7-28.7-19.7-44.2
					c-1.7-5.3-3.7-10.4-5.6-15.6c-0.4-1-1.1-1.8-1.8-3c-0.8,1.1-1.3,1.8-1.8,2.5c-8.1,13-16.6,25.7-24.1,38.9
					c-13.1,22.9-28.4,44.3-44,65.5c-1.4,2-3.2,3.8-5.2,5.2c-3.8,2.7-7.3,1.6-9.3-2.5c-0.7-1.4-1.1-3-1.6-4.5
					c-2.4-7.8-4.5-15.7-7.4-23.3c-11.7-30.7-23.6-61.3-35.5-91.9c-0.2-0.5-0.6-0.9-1-1.3c-5.7,5.1-11.3,10-16.7,15
					c-13.6,12.7-27.2,25.4-40.8,38.1c-9.2,8.6-18.6,17.2-27.7,26c-4.7,4.5-8.9,9.6-13.3,14.4c-1,1.1-2,2.1-3.1,3
					c-4.5,3.3-8.9,2.2-10.8-3.1c-1-2.7-1.4-5.6-1.8-8.5c-0.5-3.4-0.8-6.8-1.3-11c-0.1,0.1-0.1,0.3-0.2,0.4c0-0.5-0.1-1.1-0.2-1.7
					c-0.1-0.4-0.3-0.8-0.4-1.2c-0.1-0.3-0.1-0.4-0.2-0.5c0-0.2,0-0.3,0-0.6c0-1.2-0.1-2.3-0.5-3.3c-0.2-0.8-0.5-1.5-0.8-2.1
					c0-1.1,0.1-1.5,0-1.8c-5.2-18.8-9.4-37.8-11.9-57.1h-0.1c0-1-0.1-2.1-0.4-3.2c-1.8-6.2-1.7-13.9-1.6-20.6c0-0.1,0-0.2,0-0.3
					c0,0,0,0,0,0c0-0.8,0-1.6,0-2.4c0-0.1,0-0.2,0-0.3c0-0.1,0-0.1,0-0.1c0,0,0,0,0-0.1c0-0.3,0.1-0.6,0-0.9c0-0.3,0-0.6-0.1-0.9
					c-0.3-4.3-0.8-8.7-1.5-13c-0.2-1.1-1-2.6-1.9-3.2c-3.7-2.2-7.6-4.1-11.5-6.2C40.8,588.4,69.5,820.8,269.7,970.7
					c192.1,143.8,463.1,130.6,641.6-36.6c26.4-24.7,49.9-52,70.5-81.8c20.5-29.8,37.7-61.4,51.3-94.9
					C1046.6,724,1056.5,689.5,1062.6,654z M1050.4,428.9c-0.5-1.8-1-3.1-1.5-4.7c-4.4,1.6-8.6,3.2-12.8,4.7c-0.3,1.8-0.6,3.4-1,5.7
					C1040.6,432.6,1045.3,430.8,1050.4,428.9z M1030.5,417.9c5.3,0.2,10-2.5,15.1-4.4C978.8,202.9,764.7,40.3,508.6,70.1
					c-76.3,8.9-146.9,34.5-211.4,76.1c-68.6,44.3-123.2,101.9-164,172.6c-16.8,29.1-30.5,59.6-41,92c2.8,1.1,5,2.2,7.3,2.8
					c1.9,0.5,4,0.1,5.9,0.6c31.7,9.1,63.3,18.4,95.1,27.3c11.7,3.3,23,7.7,35.4,8.5c20.2,1.2,40.3,3.3,60.4,4.9
					c14.9,1.2,29.9,2.1,44.8,3.2c10.7,0.8,21.4,2.1,32.2,2.2c46.2,0.6,92.4-0.6,138.6,0.9c20.9,0.7,41.9,0.3,62.8,0.3
					c41.4,0,82.9-0.1,124.3-0.2c20.5,0,41,0,61.5,0c1.5,0,2.9,0,4.4-0.1c12.3-0.6,24.7-1.5,37-1.9c25.4-0.9,50.9-1.6,76.3-2.4
					c8.3-0.3,16.6-0.6,24.8-0.9c2.3-0.1,4.7,0.2,6.8-0.5L1030.5,417.9z M995.3,557.1c1.3-3.1,29.7-125.1,29.5-127.3
					c-37.9,11-75.2,23.2-113.6,35.2c1.1,2.1,1.7,3.7,2.7,5c4.3,5.5,8.8,10.8,13.1,16.3c10.4,13.7,22.2,26.1,34.5,38.1
					c10.2,9.9,20.3,19.9,30.5,29.9C993,555.3,994.2,556.1,995.3,557.1z M894.5,469.7c0.4-1,0.6-2.1,1-3.6c-39,1.3-77.5,2.6-116.7,4
					c0.5,1.5,0.6,2.2,0.9,2.8c9.6,20.1,19,40.2,30.9,59.1c6.1,9.6,11.9,19.3,17.5,29.1c2.2,3.9,3.8,8.1,5.5,12.3
					c1,2.3,1.8,4.7,2.9,7.7c1.3-1.7,2.1-2.9,2.9-4c7.5-11.3,14.1-23,20.1-35.2c8.8-17.9,17.6-35.7,26.3-53.6
					C888.9,482.1,891.6,475.9,894.5,469.7z M762.5,476.7c0.7-1.4,1.2-2.9,1.9-4.7c-10.4-1.6-114.4-1.5-119.7,0.2
					c19.1,37.5,38.8,74.6,56.6,113.3c0.9-1.4,1.7-2.2,2.2-3.2c5.9-11.9,14.1-22.4,21.1-33.5c4.4-7,9.3-13.8,13-21.1
					C746.2,510.7,754.3,493.6,762.5,476.7z M625.5,473.4c0.2-0.5,0.3-1.1,0.4-1.6c-6.5-1.3-106.9-1.4-116.5,0c0.6,1.5,1.1,3,1.7,4.4
					c12.1,28.9,26.8,56.5,42,83.8c2.6,4.7,4.4,9.8,6.5,14.7c1.2,2.9,2.4,5.8,3.8,9.4c1.3-1.7,2.2-2.8,3-3.9
					c9.6-13.5,17.9-27.9,25.4-42.7c6.7-13.1,13.9-25.9,20.7-38.8C617,490.3,621.2,481.9,625.5,473.4z M491.8,470.9
					c-1.8-0.2-2.9-0.4-4-0.5c-4.5-0.1-9-0.3-13.5-0.4c-27.6-0.1-55.3-0.2-82.9-0.2c-5.2,0-10.5,0.3-15.7,0.6
					c-3.5,0.2-4.1,1.3-2.8,4.6c4.3,11.3,8.2,22.7,13.1,33.7c6.9,15.7,14.3,31.1,23.2,45.9c4.5,7.4,8.2,15.3,12.2,23
					c0.9,1.8,1.9,3.5,3,5.5C445.3,544.6,469.3,508.6,491.8,470.9z M356.4,474.7c1.4-2.1,1.7-3.8-0.3-5.8c-7.7-0.6-15.5-1.3-23.3-1.8
					c-14.8-1.1-29.5-2.2-44.3-3.2c-13.8-1-27.5-1.9-41.3-2.8c-1.9-0.1-3.9,0.1-6.4,0.2c1,2.5,1.7,4.4,2.4,6.3
					c4.2,10.2,8.7,20.2,12.6,30.5c9.8,26.1,20.3,51.9,30.8,78.5c1.6-1.8,3-3.4,4.3-5.1c1.9-2.5,3.7-5.2,5.6-7.8
					c6.6-9,13.7-17.7,19.8-27C329.9,516.2,343,495.4,356.4,474.7z M176.8,504.1c4.7-4.3,45.9-41.9,47.4-44.5
					c-4.9-3-107-32.7-114.4-33.2c0,1.7-0.1,3.5,0,5.2c0.3,4.6,1,9.3,1.1,13.9c0.5,17.2,3.2,34.1,6.4,50.9c3.2,16.4,7,32.6,10.5,48.9
					c0.2,0.9,0.7,1.8,1.3,3.4C145.4,533.5,160.9,518.6,176.8,504.1z M99.5,430.8c0.5-2.2-0.1-3.9-2-4.9c-2.7-1.6-5.5-3-8.8-4.7
					c-0.6,2-1.1,3.6-1.7,5.8C91.5,428.1,94.4,432.7,99.5,430.8z"/>
				<path class="st5" d="M1027.5,417.5l-28.2,9.3c-2.5-11.1,0.8-18.5,9.3-21.1C1016.9,403.1,1023.1,407.1,1027.5,417.5z"/>
			</g>
			<g>
			</g>
		</g>
		<path class="st4" d="M1023.9,481.8c-1.8,4.2-2.4,8.7-3.1,13.4l2.5-10.2C1023.5,483.9,1023.7,482.9,1023.9,481.8z"/>
		<path class="st4" d="M1018.5,506.2c1.1,1.2,1.9,2.2,2.8,3.1c4.7,4.8,12.4,5.7,18.1,2.3c5.8-3.5,8.3-10.5,6.1-17.1
			c-2.2-6.5-8.4-10.7-15.2-9.9c-2.4,0.3-4.7,1.3-7.4,2.2l-2.1,8.7C1020.2,498.9,1019.6,502.5,1018.5,506.2z"/>
		<path class="st4" d="M1019.8,499.3l-1.6,6.5c0,0,0,0,0,0L1019.8,499.3z"/>
		<path class="st4" d="M1018.5,506.2c1.2-3.6,1.7-7.2,2.3-10.8l-1,3.9l-1.6,6.5C1018.3,506,1018.4,506.1,1018.5,506.2z"/>
		<path class="st4" d="M411.1,1004c-0.1,7.9-6.6,14.4-14.5,14.4c-7.9,0-14.7-6.8-14.6-14.8c0-8,6.8-14.7,14.8-14.6
			C404.6,989.1,411.2,995.9,411.1,1004z"/>
		<path class="st4" d="M201.9,873.9c-8.2,0-14.7-6.4-14.8-14.5c-0.1-8,6.5-14.5,14.8-14.5c7.9,0,14.5,6.4,14.5,14.3
			C216.5,867.2,210,873.8,201.9,873.9z"/>
		<path class="st4" d="M474.8,1041.3c-8.3,0-14.8-6.5-14.6-14.6c0.2-8.1,6.7-14.4,15-14.4c8,0,14.5,6.7,14.3,14.9
			C489.3,1035.2,482.9,1041.4,474.8,1041.3z"/>
		<path class="st4" d="M570.6,1036.2c0.1,7.8-6.4,14.5-14.3,14.6c-8,0.1-14.7-6.2-15-13.9c-0.3-8.2,6.6-15.5,14.5-15.4
			C563.7,1021.4,570.4,1028.1,570.6,1036.2z"/>
		<path class="st4" d="M859.6,949.2c-8.1,0-14.6-6.7-14.5-14.8c0.1-7.8,6.7-14.3,14.6-14.3c8.1,0,14.9,6.7,14.8,14.6
			C874.4,942.8,867.8,949.2,859.6,949.2z"/>
		<path class="st4" d="M1051,580.7c-0.2,8.2-6.5,14.5-14.3,14.5c-8.3-0.1-15-6.9-14.7-15c0.3-8,7.2-14.5,15.2-14.2
			C1045.2,566.2,1051.2,572.6,1051,580.7z"/>
		<path class="st4" d="M791.6,994.3c-7.9,0.1-14.3-6.2-14.5-14.3c-0.2-8,6-14.7,13.9-14.9c8.3-0.2,15.3,6.4,15.4,14.4
			C806.4,987.5,799.7,994.2,791.6,994.3z"/>
		<path class="st4" d="M918.9,893.1c-8,0-14.5-6.6-14.5-14.8c0-8,6.3-14.1,14.5-14.2c8.1-0.1,14.8,6.4,14.8,14.5
			C933.8,886.3,926.9,893.1,918.9,893.1z"/>
		<path class="st4" d="M1012.7,661.4c-0.1-7.9,6.8-14.5,14.9-14.4c7.9,0.1,14.3,6.5,14.3,14.6c0,8-6.3,14.5-14.2,14.7
			C1019.6,676.5,1012.7,669.7,1012.7,661.4z"/>
		<path class="st4" d="M967.5,798.5c8.3,0,14.5,5.9,14.7,13.9c0.1,8.5-6.2,15.1-14.6,15.1c-7.9,0-14.4-6.4-14.5-14.3
			C953.1,804.8,959.2,798.6,967.5,798.5z"/>
		<path class="st4" d="M119.8,637.2c0,8-6.7,14.5-14.9,14.4c-8,0-14.3-6.7-14.2-15c0.1-7.9,6.6-14.3,14.6-14.2
			C113.3,622.5,119.8,629,119.8,637.2z"/>
		<path class="st4" d="M156.6,776.8c8.2,0,14.6,6,14.7,13.9c0.1,8.4-6.4,15.1-14.6,15.1c-8.1,0-14.5-6.5-14.5-14.7
			C142.2,783.1,148.5,776.8,156.6,776.8z"/>
		<path class="st4" d="M716.8,1026.7c-8.2,0-14.3-5.9-14.4-14.1c-0.1-8.4,6.2-14.9,14.3-14.8c8.2,0,14.8,6.5,14.8,14.5
			C731.5,1020.4,725.2,1026.7,716.8,1026.7z"/>
		<path class="st4" d="M258.3,904.1c8.1,0,14.1,6.2,14.1,14.5c0,8.2-6.4,14.6-14.6,14.6c-7.9,0-14.5-6.8-14.5-14.8
			C243.4,910.3,249.9,904.1,258.3,904.1z"/>
		<path class="st4" d="M637.2,1045.8c-8,0-14.3-6.4-14.3-14.4c0-8.1,6.5-14.6,14.6-14.7c8,0,14.6,6.6,14.6,14.7
			C652,1039.5,645.5,1045.8,637.2,1045.8z"/>
		<path class="st4" d="M308.9,966.9c0.2-7.9,6.7-14.2,14.6-14.1c8.4,0.1,14.5,6.3,14.4,14.7c-0.1,8.3-6.6,14.7-14.7,14.4
			C315,981.6,308.8,975.1,308.9,966.9z"/>
		<path class="st4" d="M989.6,739.6c0.1-8,6.8-14.4,15-14.2c8,0.2,14.2,6.6,14.2,14.6c0,8-6.8,14.7-14.7,14.6
			C996,754.4,989.5,747.7,989.6,739.6z"/>
		<path class="st4" d="M124.2,701.8c8.1,0,14.6,6.3,14.6,14.2c0,8.3-6.6,15-14.8,14.9c-8.2-0.1-14.4-6.6-14.3-14.9
			C109.8,708,116.1,701.8,124.2,701.8z"/>
		<path class="st4" d="M676.6,109.2c-0.1,8.1-6.6,14.6-14.7,14.7c-7.9,0.1-14.3-6.6-14.3-14.9c0-8.1,6.3-14.2,14.4-14.3
			C670.3,94.6,676.7,101,676.6,109.2z"/>
		<path class="st4" d="M359.7,156.3c0,8-6.4,14.6-14.2,14.7c-8.2,0.1-15-6.8-14.9-14.9c0.1-7.9,7-14.6,15-14.5
			C353.4,141.7,359.8,148.3,359.7,156.3z"/>
		<path class="st4" d="M183.7,323.2c0,8.4-6.4,14.7-14.6,14.5c-8.1-0.2-14.4-6.5-14.4-14.4c0-8.2,6.5-14.8,14.5-14.9
			C177.2,308.3,183.7,315,183.7,323.2z"/>
		<path class="st4" d="M980.2,359.4c-8,0-14.7-6.5-14.7-14.2c-0.1-8.2,6.9-15.2,14.8-15.1c7.9,0.1,14.6,7.1,14.5,15
			C994.8,352.8,988,359.4,980.2,359.4z"/>
		<path class="st4" d="M514.1,104.6c0,8-6.6,14.8-14.6,14.8c-7.8,0.1-14.7-6.8-14.7-14.8c0-7.8,6.8-14.5,14.9-14.5
			C507.5,90.1,514.1,96.7,514.1,104.6z"/>
		<path class="st4" d="M813.2,183.3c-8.3-0.1-14.6-6.6-14.4-14.8c0.2-8.2,6.4-14.2,14.5-14.2c8.3,0,14.8,6.4,14.8,14.5
			C828,176.8,821.3,183.4,813.2,183.3z"/>
		<path class="st4" d="M232.3,257.9c0,8.1-6.2,14.1-14.5,14.1c-8.2,0-14.6-6.4-14.6-14.6c0.1-7.9,7-14.6,14.9-14.5
			C226.1,242.9,232.4,249.6,232.3,257.9z"/>
		<path class="st4" d="M132.6,381.5c7.9-0.1,14.7,6.6,14.8,14.6c0.1,7.9-6.6,14.5-14.8,14.5c-8,0-14.4-6.3-14.6-14.2
			C118,388.4,124.7,381.6,132.6,381.5z"/>
		<path class="st4" d="M291.7,201.5c0,8-6.3,14.4-14.3,14.5c-8.3,0.1-14.8-6.3-14.8-14.4c0-8.3,6.3-14.6,14.5-14.7
			C285.3,186.8,291.7,193.2,291.7,201.5z"/>
		<path class="st4" d="M878.8,202.7c7.7-0.1,14.7,6.8,14.8,14.7c0.1,7.9-6.6,14.5-14.8,14.6c-8,0.1-14.2-6.1-14.5-14.3
			C864.2,209.7,870.8,202.8,878.8,202.7z"/>
		<path class="st4" d="M920.6,277c-0.1-8.3,6.3-14.9,14.3-15c8.1-0.1,14.7,6.4,14.8,14.6c0.1,8.1-6.4,14.6-14.6,14.7
			C927.2,291.4,920.7,285,920.6,277z"/>
		<path class="st4" d="M419.8,138.2c-8.2-0.3-14.5-6.9-14.2-15c0.3-8.2,6.9-14.2,15.2-14c8,0.2,14.2,6.8,14,14.8
			C434.5,132.3,428,138.5,419.8,138.2z"/>
		<path class="st4" d="M595.5,99.6c0,8.3-6.3,14.9-14.3,15c-8.1,0-14.6-6.4-14.7-14.5c-0.1-8.1,6-14.5,14-14.5
			C589,85.4,595.4,91.4,595.5,99.6z"/>
		<path class="st4" d="M740.1,146.9c-8,0-14.5-6.7-14.3-14.9c0.2-8.1,6.4-14.2,14.5-14.2c8.1,0,14.7,6.6,14.7,14.6
			C755,140.4,748.2,146.9,740.1,146.9z"/>
		<path class="st4" d="M988.3,510.4c0.1,4.9-2.9,6.9-6.3,4.9c-1.4-0.8-2.7-2.3-3.4-3.8c-2.7-6.3-5.2-12.6-7.5-19
			c-0.5-1.4-0.6-3.1-0.5-4.7c0.1-2.4,1.6-4,3.9-4.7c2.1-0.7,4.1,0.2,5.6,2.3c0.1,0.1,0.2,0.2,0.2,0.4
			C984.1,494,986.7,502.5,988.3,510.4z"/>
		<path class="st4" d="M977,474.1c0,3.5-3.4,7.4-6.5,7.4c-3.5,0-7.4-3.7-7.5-7.2c-0.1-3.9,2.9-7.1,6.6-7.1
			C973.7,467.2,976.9,470.1,977,474.1z"/>
		<path class="st4" d="M409.1,520.6c0.4-2.6,0.6-5.2,1.3-7.7c1-3.6,3.4-5.1,6.4-4.4c3.3,0.8,4.8,3.2,4.2,6.9
			c-0.6,3.6-0.8,7.2,0.6,10.7c0.6,1.5,1.3,2.9,3.3,2.9c2.1,0,2.8-1.5,3.2-3c0.9-3.3,1.6-6.7,2.4-10.1c0.3-1.6,0.5-3.2,0.8-4.7
			c0.5-2.2,1.8-3.6,4.1-4c2.1-0.3,4.4,0.9,5.3,3c0.6,1.4,0.9,3.1,0.8,4.6c-0.3,6.1-2.1,11.9-4.5,17.6c-3.6,8.5-18.9,10.6-24.3,0.6
			C410.4,528.7,409.3,525.7,409.1,520.6z"/>
		<path class="st4" d="M292.2,474.2c0.4-0.1,0.7-0.3,1-0.3c7.1-0.1,9,1.4,8.9,8.5c-0.2,11.3-0.8,22.6-1.3,33.9
			c-0.1,2.5-0.3,4.9-0.6,7.4c-0.2,1.7-0.5,3.5-1.2,5c-0.8,1.9-2.6,2.7-4.6,2.6c-2.1-0.2-3.6-1.3-3.9-3.4c-0.3-1.6-0.5-3.2-0.5-4.7
			c0.6-16,1.2-31.9,1.9-47.9C291.8,475,292,474.7,292.2,474.2z"/>
		<path class="st4" d="M831.2,515.4c-1.6-0.4-2.9-0.6-4.1-1c-2-0.6-3.2-1.9-3.3-4.1c-0.1-2.1,0.6-3.8,2.5-4.7c1.7-0.8,3.5-1.3,5.3-2
			c0.2-4,0.4-7.9,0.7-11.7c0.1-1.2,0.1-2.5,0.7-3.4c0.9-1.2,2.1-2.3,3.5-2.9c1.6-0.6,3.3,0.3,4,1.9c0.9,2.1,1.6,4.4,1.9,6.6
			c0.4,3,0.4,6,0.5,9.3c1.3,0.1,2.4,0.2,3.6,0.4c2.1,0.3,4,1.1,4.5,3.4c0.4,1.9-1,4.9-2.8,5.9c-0.8,0.4-1.6,0.7-2.4,0.9
			c-0.7,0.2-1.4,0.3-2.4,0.5c-0.2,1.9-0.6,3.7-0.7,5.6c-0.3,6.1-0.6,12.2-0.9,18.3c-0.1,1-0.1,2-0.3,3c-0.5,2.6-1.8,3.9-3.8,4
			c-2.1,0.1-4.5-1.2-5.2-3.2c-0.5-1.3-0.7-2.8-0.7-4.3c-0.1-5.9-0.2-11.9-0.2-17.9C831.2,518.6,831.2,517,831.2,515.4z"/>
		<path class="st4" d="M696.3,521.1c1.5,4.3,3.9,6.6,7.8,6.7c3.5,0.2,7,0.2,10.4,0.2c1.3,0,2.6-0.1,3.9,0.1c2.9,0.4,4.2,2.7,3,5.4
			c-1.2,2.7-3.4,4.4-6.3,4.9c-6,1-11.9,0.9-17.6-1.1c-7.9-2.8-12.5-10-12.1-18.7c0.3-7.2,3.2-12.9,9.4-16.8c2.4-1.5,5-3,7.6-4.2
			c6.5-2.8,13.9,0.1,16.8,6.5c1,2.2,1.8,4.6,2.3,7c1.3,5.9-1.7,10-7.8,10.4c-4.2,0.3-8.4,0-12.6-0.1
			C699.8,521.5,698.3,521.3,696.3,521.1z M713.3,513.8c-0.6-8.2-4.8-10.6-11.3-7c-1.8,1-3.4,2.2-5,3.4c-0.7,0.5-1,1.5-1.6,2.6
			C701.5,514.4,707.2,513.9,713.3,513.8z"/>
		<path class="st4" d="M558.3,514c-2.8,2.4-3.2,5.3-3.9,8c-0.4,1.7-0.6,3.4-1.2,5.1c-0.8,2.2-2.4,3.6-4.9,3.6
			c-2.5,0-4.2-1.3-5.2-3.9c-0.4-1.1-0.7-2.2-0.8-3.4c-0.5-5.2-1.5-10.3-3.3-15.3c-1.2-3.2-0.2-5.8,1.9-6.9c2.4-1.3,5.2-0.5,7.3,2
			c0.6,0.6,1,1.4,1.8,2.4c2.7-3,5.1-6.3,9.5-6.4c4.8-0.1,6.8,3.3,8.7,6.7c2.3-1.2,4.5-2.6,6.9-3.3c6.4-1.8,11.1,0.4,13.8,6.5
			c2,4.6,3,9.4,2.8,14.4c-0.1,3-1.2,4.8-3.2,5.1c-2.4,0.4-4.4-0.7-5.6-2.6c-0.9-1.4-1.4-3.2-1.7-4.9c-0.5-2.8-1-5.6-2.8-8.2
			c-3.1,2.1-4.2,5.1-5.3,8c-0.9,2.3-1.8,4.6-3,6.7c-1.2,2.2-3.2,3.4-5.8,3c-2.7-0.4-4-2.3-4.4-4.7c-0.5-2.8-0.9-5.7-1.3-8.6
			C558.7,516.5,558.5,515.5,558.3,514z"/>
		<path class="st4" d="M146.9,485.9c-0.7,3.2-1.2,6-1.9,8.8c-0.4,1.8-1,3.6-1.7,5.4c-0.6,1.6-1.6,2.7-3.5,2.8
			c-2,0.1-3.6-0.7-4.2-2.4c-0.6-1.8-1.1-4-0.9-5.9c0.9-8.9,2.2-17.9,3.2-26.8c0.3-2.7,0.4-5.4-0.6-8.1c-1.1-3.1,0.6-5.6,3-7.6
			c2.6-2.2,5.7-2.9,8.9-3.2c7-0.7,13.6,0.8,19.9,3.5c1.8,0.8,3.4,2.2,4.7,3.7c4.7,5.3,5.7,18.3-2,24.6c-5.9,4.8-12.3,7.6-20.1,5.8
			C150.4,486.2,148.9,486.1,146.9,485.9z M145,476.3c3.1,0.7,5.5,1.2,7.8,1.8c4.2,1,8,0.3,11.8-1.6c2.8-1.4,5.5-6.9,5-10
			c-1-5.9-5-9.6-11-9.9c-2.2-0.1-4.4,0.1-6.5,0.1c-2.7,0-4.4,1.3-4.8,4.1C146.6,465.8,145.8,470.8,145,476.3z"/>
	</g>
</g>
</svg>
